<svg width="60" height="60" viewBox="0 0 60 60" fill="none" xmlns="http://www.w3.org/2000/svg">
<path d="M29.9999 55.4547C29.7327 55.4547 29.4763 55.3365 29.3054 55.1311L0.214488 20.5856C-0.0582392 20.262 -0.0727846 19.7929 0.181761 19.4547L11.0909 4.90926C11.2618 4.68017 11.5327 4.54562 11.8181 4.54562H48.1818C48.4672 4.54562 48.7381 4.68017 48.909 4.90926L59.8181 19.4547C60.0727 19.7929 60.0581 20.262 59.7854 20.5856L30.6945 55.1311C30.5236 55.3365 30.2672 55.4547 29.9999 55.4547ZM2.07085 19.9674L29.9999 53.1347L57.929 19.9674L47.7272 6.36381H12.2727L2.07085 19.9674Z" fill="#4DC94A"/>
<path d="M59.0909 20.9091H0.909091C0.407273 20.9091 0 20.5036 0 20C0 19.4964 0.407273 19.0909 0.909091 19.0909H59.0909C59.5927 19.0909 60 19.4982 60 20C60 20.5018 59.5927 20.9091 59.0909 20.9091Z" fill="#4DC94A"/>
<path d="M29.9999 55.4545C29.909 55.4545 29.8163 55.4418 29.7272 55.4127C29.2472 55.2618 28.9817 54.7509 29.1345 54.2727L40.0436 19.7273C40.1945 19.2491 40.709 18.98 41.1836 19.1345C41.6636 19.2854 41.929 19.7964 41.7763 20.2745L30.8672 54.82C30.7454 55.2073 30.3854 55.4545 29.9999 55.4545Z" fill="#4DC94A"/>
<path d="M29.9998 55.4546C29.6144 55.4546 29.2544 55.2073 29.1326 54.8182L18.2235 20.2727C18.0726 19.7946 18.338 19.2836 18.8162 19.1327C19.2962 18.9782 19.8053 19.2473 19.9562 19.7255L30.8653 54.2709C31.0162 54.7491 30.7507 55.26 30.2726 55.4109C30.1835 55.4418 30.0907 55.4546 29.9998 55.4546Z" fill="#4DC94A"/>
<path d="M19.0911 20.9093C18.7566 20.9093 18.4366 20.7257 18.2766 20.4075L11.0038 5.86205C10.7802 5.41296 10.962 4.86751 11.4111 4.64205C11.862 4.41842 12.4057 4.60024 12.6311 5.04933L19.9038 19.5948C20.1293 20.0439 19.9457 20.5893 19.4966 20.8148C19.3675 20.8784 19.2293 20.9093 19.0911 20.9093Z" fill="#4DC94A"/>
<path d="M19.0907 20.9093C18.9016 20.9093 18.7107 20.8493 18.5471 20.7275C18.1453 20.4257 18.0635 19.8566 18.3653 19.4548L29.2744 4.90931C29.5762 4.5075 30.1453 4.42749 30.5471 4.72749C30.9489 5.02931 31.0307 5.5984 30.7289 6.00022L19.8198 20.5457C19.6398 20.7839 19.3671 20.9093 19.0907 20.9093Z" fill="#4DC94A"/>
<path d="M40.9089 20.9091C40.6325 20.9091 40.3598 20.7836 40.1816 20.5455L29.2725 6C28.9707 5.59818 29.0525 5.02909 29.4543 4.72727C29.8543 4.42364 30.4252 4.50545 30.727 4.90909L41.6361 19.4545C41.9379 19.8564 41.8561 20.4255 41.4543 20.7273C41.2907 20.8509 41.0998 20.9091 40.9089 20.9091Z" fill="#4DC94A"/>
<path d="M40.9089 20.9088C40.7725 20.9088 40.6343 20.8779 40.5034 20.8125C40.0543 20.587 39.8725 20.0416 40.0961 19.5925L47.3689 5.04701C47.5943 4.59792 48.1379 4.4161 48.5889 4.63974C49.0379 4.86519 49.2198 5.41064 48.9961 5.85974L41.7234 20.4052C41.5616 20.7252 41.2416 20.9088 40.9089 20.9088Z" fill="#4DC94A"/>
</svg>
