<svg width="60" height="60" viewBox="0 0 60 60" fill="none" xmlns="http://www.w3.org/2000/svg">
<path fill-rule="evenodd" clip-rule="evenodd" d="M10.0002 10H7.41417L3.41418 6H5.00017C5.55317 6 6.00017 5.552 6.00017 5V3.414L10.0002 7.414V10ZM30.0001 0C23.3541 0 16.9141 2.216 11.6772 6.263L5.70717 0.293C5.42117 0.007 4.99117 -0.077 4.61717 0.076C4.24318 0.231 4.00018 0.596 4.00018 1V4H1.00019C0.596187 4 0.230189 4.244 0.076189 4.617C-0.0788105 4.991 0.00718922 5.421 0.293188 5.707L6.29317 11.707C6.48017 11.895 6.73417 12 7.00017 12H10.5862L29.2931 30.707C29.4881 30.902 29.7441 31 30.0001 31C30.2561 31 30.5121 30.902 30.7071 30.707C31.0981 30.316 31.0981 29.684 30.7071 29.293L27.9401 26.527C28.5221 26.187 29.2051 26 30.0001 26C32.2061 26 34.0001 27.794 34.0001 30C34.0001 32.206 32.2061 34 30.0001 34C27.7941 34 26.0001 32.206 26.0001 30C26.0001 29.448 25.5531 29 25.0001 29C24.4471 29 24.0001 29.448 24.0001 30C24.0001 33.309 26.6911 36 30.0001 36C33.3091 36 36.0001 33.309 36.0001 30C36.0001 26.691 33.3091 24 30.0001 24C28.6551 24 27.4621 24.372 26.4881 25.074L22.2561 20.842C24.4201 19.007 27.1311 18 30.0001 18C36.6171 18 42.0001 23.383 42.0001 30C42.0001 36.617 36.6171 42 30.0001 42C23.3831 42 18.0001 36.617 18.0001 30C18.0001 28.181 18.4101 26.417 19.2191 24.759C19.4611 24.262 19.2551 23.664 18.7591 23.421C18.2611 23.179 17.6631 23.387 17.4221 23.882C16.4791 25.816 16.0001 27.874 16.0001 30C16.0001 37.72 22.2801 44 30.0001 44C37.7201 44 44.0001 37.72 44.0001 30C44.0001 22.28 37.7201 16 30.0001 16C26.5971 16 23.3871 17.218 20.8421 19.428L16.6011 15.187C20.2851 11.848 24.9971 10 30.0001 10C41.0281 10 50 18.972 50 30C50 41.028 41.0281 50 30.0001 50C18.9721 50 10.0002 41.028 10.0002 30C10.0002 26.085 11.1412 22.286 13.2981 19.013C13.6021 18.552 13.4751 17.932 13.0141 17.628C12.5511 17.324 11.9322 17.453 11.6282 17.913C9.25516 21.513 8.00016 25.693 8.00016 30C8.00016 42.131 17.8691 52 30.0001 52C42.1311 52 52 42.131 52 30C52 17.869 42.1311 8 30.0001 8C24.4631 8 19.2511 10.057 15.1871 13.773L12.0002 10.586V8.57C17.0401 4.333 23.4111 2 30.0001 2C45.439 2 58 14.561 58 30C58 45.439 45.439 58 30.0001 58C14.5611 58 2.00018 45.439 2.00018 30C2.00018 24.707 3.48818 19.551 6.30517 15.09C6.60017 14.624 6.46017 14.006 5.99317 13.711C5.52517 13.417 4.90917 13.557 4.61317 14.023C1.59618 18.803 0.000189259 24.328 0.000189259 30C0.000189259 46.542 13.4581 60 30.0001 60C46.542 60 60 46.542 60 30C60 13.458 46.542 0 30.0001 0Z" fill="#4DC94A"/>
</svg>
