<svg width="70" height="65" viewBox="0 0 70 65" fill="none" xmlns="http://www.w3.org/2000/svg">
<path d="M30.5776 17.2961H36.1499C36.6861 17.2961 37.2003 17.4939 37.5795 17.8459C37.9586 18.198 38.1716 18.6755 38.1717 19.1734V34.8113C38.1717 35.0578 38.1194 35.3018 38.0179 35.5295C37.9163 35.7572 37.7674 35.964 37.5798 36.1383C37.3921 36.3125 37.1693 36.4508 36.9241 36.5451C36.679 36.6394 36.4162 36.6879 36.1508 36.6879H30.5776C30.0413 36.6879 29.527 36.4901 29.1479 36.138C28.7687 35.7859 28.5557 35.3084 28.5557 34.8104V19.1734C28.5557 18.6755 28.7688 18.198 29.1479 17.8459C29.5271 17.4939 30.0414 17.2961 30.5776 17.2961Z" fill="#4DC94A"/>
<path d="M19.8356 24.674H14.2631C13.1464 24.674 12.2412 25.5146 12.2412 26.5515V34.8104C12.2412 35.8473 13.1464 36.6879 14.2631 36.6879H19.8356C20.9522 36.6879 21.8575 35.8473 21.8575 34.8104V26.5515C21.8575 25.5146 20.9522 24.674 19.8356 24.674Z" fill="#4DC94A"/>
<path d="M58.3828 9.76492L51.3172 3.29133C50.8788 2.89327 50.29 2.67045 49.6769 2.67062C49.0638 2.67079 48.4751 2.89394 48.037 3.29224L40.9757 9.76685C40.7717 9.95363 40.6321 10.1925 40.5747 10.4532C40.5173 10.7138 40.5447 10.9844 40.6533 11.2305C40.762 11.4767 40.9471 11.6873 41.185 11.8355C41.4229 11.9837 41.7029 12.0629 41.9894 12.063H43.1941C43.6385 12.0635 44.0646 12.2276 44.3788 12.5194C44.693 12.8112 44.8697 13.2069 44.8702 13.6195V34.7013C44.8706 35.1991 45.0837 35.6765 45.4628 36.0285C45.8419 36.3805 46.356 36.5785 46.8921 36.5788H52.4655C53.0015 36.5782 53.5152 36.3801 53.8941 36.0281C54.273 35.6761 54.4859 35.1989 54.4863 34.7013V13.6169C54.4869 13.2043 54.6636 12.8088 54.9778 12.517C55.292 12.2253 55.718 12.0612 56.1623 12.0606H57.3672C57.6537 12.0606 57.9337 11.9816 58.1717 11.8334C58.4097 11.6853 58.5949 11.4748 58.7037 11.2287C58.8126 10.9827 58.8402 10.7121 58.7831 10.4514C58.726 10.1907 58.5866 9.95194 58.3828 9.76492Z" fill="#4DC94A"/>
<path d="M14.5152 51.0237C14.305 51.2796 14.1927 51.5934 14.1964 51.9153C14.2 52.2372 14.3192 52.5487 14.5352 52.8005C17.9822 56.8419 33.5845 72.5601 53.2545 52.5223C53.5184 52.2507 53.6627 51.8969 53.6586 51.531C53.6546 51.1652 53.5025 50.8142 53.2326 50.5477C33.1138 30.8976 17.87 46.9161 14.5152 51.0237ZM33.9279 57.7044C32.5113 57.7045 31.1265 57.3145 29.9486 56.5838C28.7707 55.853 27.8525 54.8143 27.3103 53.5991C26.7682 52.3838 26.6262 51.0465 26.9025 49.7564C27.1788 48.4662 27.8609 47.2811 28.8626 46.3509C29.8642 45.4207 31.1404 44.7872 32.5298 44.5306C33.9192 44.2739 35.3593 44.4056 36.6681 44.9089C37.9769 45.4123 39.0956 46.2647 39.8826 47.3584C40.6697 48.4521 41.0898 49.738 41.0898 51.0534C41.0898 52.8173 40.3353 54.5089 38.9922 55.7562C37.6491 57.0034 35.8275 57.7042 33.9279 57.7044Z" fill="#4DC94A"/>
<path d="M33.9279 47.9004C33.2563 47.9004 32.5998 48.0853 32.0413 48.4318C31.4829 48.7783 31.0477 49.2707 30.7907 49.8469C30.5337 50.4231 30.4665 51.0571 30.5975 51.6687C30.7285 52.2804 31.0519 52.8422 31.5268 53.2832C32.0017 53.7241 32.6068 54.0244 33.2655 54.1461C33.9242 54.2677 34.6069 54.2053 35.2274 53.9666C35.8479 53.7279 36.3782 53.3238 36.7513 52.8052C37.1244 52.2867 37.3236 51.6771 37.3235 51.0534C37.3235 50.6394 37.2357 50.2293 37.0651 49.8468C36.8944 49.4643 36.6443 49.1167 36.329 48.8239C36.0137 48.5311 35.6393 48.2988 35.2273 48.1404C34.8154 47.982 34.3738 47.9004 33.9279 47.9004Z" fill="#4DC94A"/>
</svg>
